<?xml version="1.0" encoding="UTF-8"?>
<svg width="108px" height="108px" viewBox="0 0 108 108" version="1.1" xmlns="http://www.w3.org/2000/svg" xmlns:xlink="http://www.w3.org/1999/xlink">
    <title>ic_launcher_foreground</title>
    <defs>
        <radialGradient cx="27.5377653%" cy="27.4856189%" fx="27.5377653%" fy="27.4856189%" r="65.878193%" id="radialGradient-1">
            <stop stop-color="#FFFFFF" stop-opacity="0.1" offset="0%"></stop>
            <stop stop-color="#FFFFFF" stop-opacity="0" offset="100%"></stop>
        </radialGradient>
    </defs>
    <g id="Android" stroke="none" stroke-width="1" fill="none" fill-rule="evenodd">
        <g id="foreground">
            <path d="M57.5175644,30.2615494 C54.5913266,29.8277975 51.7102681,29.9447242 48.9784308,30.5293324 L46.7227335,38.2506896 L66.2022223,41.1381038 L67.7210628,41.3632385 L75.0350867,42.447385 C71.5444875,36.102949 65.233349,31.4052482 57.5175644,30.2615494 L57.5175644,30.2615494 Z M46.7073482,31.1346612 C38.2656963,33.8330625 31.6496021,41.1194489 30.2625138,50.4791508 C29.5879364,55.0310201 30.238672,59.47385 31.9244565,63.4156995 L36.8266912,64.0971352 L44.5787942,38.4302564 L46.7073482,31.1346612 L46.7073482,31.1346612 Z M67.6862529,43.3776601 L67.2635829,68.2960156 L67.3123757,73.966363 C72.755018,70.3338498 76.7024364,64.499363 77.7373172,57.5162672 C78.4093699,52.9814343 77.7670074,48.554348 76.09517,44.6241009 L67.6862529,43.3776601 L67.6862529,43.3776601 Z M36.2356282,66.0517111 L32.9945059,65.6014274 C36.4907769,71.9205533 42.7870441,76.5969861 50.4817202,77.7375564 C55.690884,78.5097022 60.7548443,77.5448736 65.0908109,75.2798569 L65.0493393,70.4244549 L36.2292098,66.0695991 L36.2356258,66.05171 L36.2356282,66.0517111 Z" id="shutter" fill="#FFFFFF"></path>
            <rect id="finish" fill="url(#radialGradient-1)" x="0" y="0" width="108" height="108"></rect>
        </g>
    </g>
</svg>